<svg xmlns="http://www.w3.org/2000/svg" xmlns:xlink="http://www.w3.org/1999/xlink" xmlns:inkscape="http://www.inkscape.org/namespaces/inkscape" version="1.1" width="612" height="792" viewBox="0 0 612 792">
<path transform="matrix(1,0,0,-1,328.755,316.653)" stroke-width=".19925" stroke-linecap="butt" stroke-miterlimit="10" stroke-linejoin="miter" fill="none" stroke="#333333" d="M-170.08257-170.08257H170.08257M-170.08257-153.07433H170.08257M-170.08257-136.06606H170.08257M-170.08257-119.0578H170.08257M-170.08257-102.04953H170.08257M-170.08257-85.04128H170.08257M-170.08257-68.03302H170.08257M-170.08257-51.02477H170.08257M-170.08257-34.0165H170.08257M-170.08257-17.00824H170.08257M-170.08257 0H170.08257M-170.08257 17.00824H170.08257M-170.08257 34.0165H170.08257M-170.08257 51.02477H170.08257M-170.08257 68.03302H170.08257M-170.08257 85.04128H170.08257M-170.08257 102.04953H170.08257M-170.08257 119.0578H170.08257M-170.08257 136.06606H170.08257M-170.08257 153.07433H170.08257M-170.08257 170.0766H170.08257M-170.08257-170.08257V170.08257M-153.07433-170.08257V170.08257M-136.06606-170.08257V170.08257M-119.0578-170.08257V170.08257M-102.04953-170.08257V170.08257M-85.04128-170.08257V170.08257M-68.03302-170.08257V170.08257M-51.02477-170.08257V170.08257M-34.0165-170.08257V170.08257M-17.00824-170.08257V170.08257M0-170.08257V170.08257M17.00824-170.08257V170.08257M34.0165-170.08257V170.08257M51.02477-170.08257V170.08257M68.03302-170.08257V170.08257M85.04128-170.08257V170.08257M102.04953-170.08257V170.08257M119.0578-170.08257V170.08257M136.06606-170.08257V170.08257M153.07433-170.08257V170.08257M170.0766-170.08257V170.08257M170.08257 170.08257"/>
<path transform="matrix(1,0,0,-1,328.755,316.653)" stroke-width=".79701" stroke-linecap="butt" stroke-miterlimit="10" stroke-linejoin="miter" fill="none" stroke="#000000" d="M-178.5867 0H177.87934"/>
<path transform="matrix(1,0,0,-1,506.63435,316.653)" stroke-width=".6376" stroke-linecap="round" stroke-linejoin="round" fill="none" stroke="#000000" d="M-1.55415 2.0722C-1.42464 1.29512 0 .1295 .38852 0 0-.1295-1.42464-1.29512-1.55415-2.0722"/>
<text xml:space="preserve" transform="matrix(1 0 -0 1 -.000030517579 792)" font-size="9.9626" font-family="Computer Modern" font-style="italic"><tspan y="-473.203" x="511.058">x</tspan></text>
<path transform="matrix(1,0,0,-1,328.755,316.653)" stroke-width=".79701" stroke-linecap="butt" stroke-miterlimit="10" stroke-linejoin="miter" fill="none" stroke="#000000" d="M0-178.5867V177.87934"/>
<path transform="matrix(0,-1,-1,-0,328.755,138.77368)" stroke-width=".6376" stroke-linecap="round" stroke-linejoin="round" fill="none" stroke="#000000" d="M-1.55415 2.0722C-1.42464 1.29512 0 .1295 .38852 0 0-.1295-1.42464-1.29512-1.55415-2.0722"/>
<text xml:space="preserve" transform="matrix(1 0 -0 1 0 792)" font-size="9.9626" font-family="Computer Modern" font-style="italic"><tspan y="-659.588" x="326.134">y</tspan></text>
<path transform="matrix(1,0,0,-1,328.755,316.653)" stroke-width=".3985" stroke-linecap="butt" stroke-miterlimit="10" stroke-linejoin="miter" fill="none" stroke="#000000" d="M-170.08257-1.70091V1.70091"/>
<text xml:space="preserve" transform="matrix(1 0 -0 1 0 792)" font-size="9.9626" font-family="Computer Modern"><tspan y="-467.108" x="152.033 155.35056 160.33185">-10</tspan></text>
<path transform="matrix(1,0,0,-1,328.755,316.653)" stroke-width=".3985" stroke-linecap="butt" stroke-miterlimit="10" stroke-linejoin="miter" fill="none" stroke="#000000" d="M-153.07433-1.70091V1.70091"/>
<text xml:space="preserve" transform="matrix(1 0 -0 1 0 792)" font-size="9.9626" font-family="Computer Modern"><tspan y="-467.108" x="171.532 174.84955">-9</tspan></text>
<path transform="matrix(1,0,0,-1,328.755,316.653)" stroke-width=".3985" stroke-linecap="butt" stroke-miterlimit="10" stroke-linejoin="miter" fill="none" stroke="#000000" d="M-136.06606-1.70091V1.70091"/>
<text xml:space="preserve" transform="matrix(1 0 -0 1 .000015258789 792)" font-size="9.9626" font-family="Computer Modern"><tspan y="-467.108" x="188.54 191.85755">-8</tspan></text>
<path transform="matrix(1,0,0,-1,328.755,316.653)" stroke-width=".3985" stroke-linecap="butt" stroke-miterlimit="10" stroke-linejoin="miter" fill="none" stroke="#000000" d="M-119.0578-1.70091V1.70091"/>
<text xml:space="preserve" transform="matrix(1 0 -0 1 0 792)" font-size="9.9626" font-family="Computer Modern"><tspan y="-467.108" x="205.548 208.86556">-7</tspan></text>
<path transform="matrix(1,0,0,-1,328.755,316.653)" stroke-width=".3985" stroke-linecap="butt" stroke-miterlimit="10" stroke-linejoin="miter" fill="none" stroke="#000000" d="M-102.04953-1.70091V1.70091"/>
<text xml:space="preserve" transform="matrix(1 0 -0 1 0 792)" font-size="9.9626" font-family="Computer Modern"><tspan y="-467.108" x="222.556 225.87355">-6</tspan></text>
<path transform="matrix(1,0,0,-1,328.755,316.653)" stroke-width=".3985" stroke-linecap="butt" stroke-miterlimit="10" stroke-linejoin="miter" fill="none" stroke="#000000" d="M-85.04128-1.70091V1.70091"/>
<text xml:space="preserve" transform="matrix(1 0 -0 1 0 792)" font-size="9.9626" font-family="Computer Modern"><tspan y="-467.108" x="239.564 242.88155">-5</tspan></text>
<path transform="matrix(1,0,0,-1,328.755,316.653)" stroke-width=".3985" stroke-linecap="butt" stroke-miterlimit="10" stroke-linejoin="miter" fill="none" stroke="#000000" d="M-68.03302-1.70091V1.70091"/>
<text xml:space="preserve" transform="matrix(1 0 -0 1 .000030517579 792)" font-size="9.9626" font-family="Computer Modern"><tspan y="-467.108" x="256.572 259.88954">-4</tspan></text>
<path transform="matrix(1,0,0,-1,328.755,316.653)" stroke-width=".3985" stroke-linecap="butt" stroke-miterlimit="10" stroke-linejoin="miter" fill="none" stroke="#000000" d="M-51.02477-1.70091V1.70091"/>
<text xml:space="preserve" transform="matrix(1 0 -0 1 .000030517579 792)" font-size="9.9626" font-family="Computer Modern"><tspan y="-467.108" x="273.58 276.89753">-3</tspan></text>
<path transform="matrix(1,0,0,-1,328.755,316.653)" stroke-width=".3985" stroke-linecap="butt" stroke-miterlimit="10" stroke-linejoin="miter" fill="none" stroke="#000000" d="M-34.0165-1.70091V1.70091"/>
<text xml:space="preserve" transform="matrix(1 0 -0 1 0 792)" font-size="9.9626" font-family="Computer Modern"><tspan y="-467.108" x="290.588 293.90556">-2</tspan></text>
<path transform="matrix(1,0,0,-1,328.755,316.653)" stroke-width=".3985" stroke-linecap="butt" stroke-miterlimit="10" stroke-linejoin="miter" fill="none" stroke="#000000" d="M-17.00824-1.70091V1.70091"/>
<text xml:space="preserve" transform="matrix(1 0 -0 1 0 792)" font-size="9.9626" font-family="Computer Modern"><tspan y="-467.108" x="307.596 310.91355">-1</tspan></text>
<path transform="matrix(1,0,0,-1,328.755,316.653)" stroke-width=".3985" stroke-linecap="butt" stroke-miterlimit="10" stroke-linejoin="miter" fill="none" stroke="#000000" d="M0-1.70091V1.70091"/>
<text xml:space="preserve" transform="matrix(1 0 -0 1 0 792)" font-size="9.9626" font-family="Computer Modern"><tspan y="-467.108" x="326.264">0</tspan></text>
<path transform="matrix(1,0,0,-1,328.755,316.653)" stroke-width=".3985" stroke-linecap="butt" stroke-miterlimit="10" stroke-linejoin="miter" fill="none" stroke="#000000" d="M17.00824-1.70091V1.70091"/>
<text xml:space="preserve" transform="matrix(1 0 -0 1 0 792)" font-size="9.9626" font-family="Computer Modern"><tspan y="-467.108" x="343.272">1</tspan></text>
<path transform="matrix(1,0,0,-1,328.755,316.653)" stroke-width=".3985" stroke-linecap="butt" stroke-miterlimit="10" stroke-linejoin="miter" fill="none" stroke="#000000" d="M34.0165-1.70091V1.70091"/>
<text xml:space="preserve" transform="matrix(1 0 -0 1 0 792)" font-size="9.9626" font-family="Computer Modern"><tspan y="-467.108" x="360.28">2</tspan></text>
<path transform="matrix(1,0,0,-1,328.755,316.653)" stroke-width=".3985" stroke-linecap="butt" stroke-miterlimit="10" stroke-linejoin="miter" fill="none" stroke="#000000" d="M51.02477-1.70091V1.70091"/>
<text xml:space="preserve" transform="matrix(1 0 -0 1 0 792)" font-size="9.9626" font-family="Computer Modern"><tspan y="-467.108" x="377.288">3</tspan></text>
<path transform="matrix(1,0,0,-1,328.755,316.653)" stroke-width=".3985" stroke-linecap="butt" stroke-miterlimit="10" stroke-linejoin="miter" fill="none" stroke="#000000" d="M68.03302-1.70091V1.70091"/>
<text xml:space="preserve" transform="matrix(1 0 -0 1 .000030517579 792)" font-size="9.9626" font-family="Computer Modern"><tspan y="-467.108" x="394.296">4</tspan></text>
<path transform="matrix(1,0,0,-1,328.755,316.653)" stroke-width=".3985" stroke-linecap="butt" stroke-miterlimit="10" stroke-linejoin="miter" fill="none" stroke="#000000" d="M85.04128-1.70091V1.70091"/>
<text xml:space="preserve" transform="matrix(1 0 -0 1 0 792)" font-size="9.9626" font-family="Computer Modern"><tspan y="-467.108" x="411.305">5</tspan></text>
<path transform="matrix(1,0,0,-1,328.755,316.653)" stroke-width=".3985" stroke-linecap="butt" stroke-miterlimit="10" stroke-linejoin="miter" fill="none" stroke="#000000" d="M102.04953-1.70091V1.70091"/>
<text xml:space="preserve" transform="matrix(1 0 -0 1 0 792)" font-size="9.9626" font-family="Computer Modern"><tspan y="-467.108" x="428.313">6</tspan></text>
<path transform="matrix(1,0,0,-1,328.755,316.653)" stroke-width=".3985" stroke-linecap="butt" stroke-miterlimit="10" stroke-linejoin="miter" fill="none" stroke="#000000" d="M119.0578-1.70091V1.70091"/>
<text xml:space="preserve" transform="matrix(1 0 -0 1 0 792)" font-size="9.9626" font-family="Computer Modern"><tspan y="-467.108" x="445.321">7</tspan></text>
<path transform="matrix(1,0,0,-1,328.755,316.653)" stroke-width=".3985" stroke-linecap="butt" stroke-miterlimit="10" stroke-linejoin="miter" fill="none" stroke="#000000" d="M136.06606-1.70091V1.70091"/>
<text xml:space="preserve" transform="matrix(1 0 -0 1 0 792)" font-size="9.9626" font-family="Computer Modern"><tspan y="-467.108" x="462.329">8</tspan></text>
<path transform="matrix(1,0,0,-1,328.755,316.653)" stroke-width=".3985" stroke-linecap="butt" stroke-miterlimit="10" stroke-linejoin="miter" fill="none" stroke="#000000" d="M153.07433-1.70091V1.70091"/>
<text xml:space="preserve" transform="matrix(1 0 -0 1 0 792)" font-size="9.9626" font-family="Computer Modern"><tspan y="-467.108" x="479.337">9</tspan></text>
<path transform="matrix(1,0,0,-1,328.755,316.653)" stroke-width=".3985" stroke-linecap="butt" stroke-miterlimit="10" stroke-linejoin="miter" fill="none" stroke="#000000" d="M170.08257-1.70091V1.70091"/>
<text xml:space="preserve" transform="matrix(1 0 -0 1 0 792)" font-size="9.9626" font-family="Computer Modern"><tspan y="-467.108" x="493.854 498.8353">10</tspan></text>
<path transform="matrix(1,0,0,-1,328.755,316.653)" stroke-width=".3985" stroke-linecap="butt" stroke-miterlimit="10" stroke-linejoin="miter" fill="none" stroke="#000000" d="M-1.70091-170.08257H1.70091"/>
<text xml:space="preserve" transform="matrix(1 0 -0 1 0 792)" font-size="9.9626" font-family="Computer Modern"><tspan y="-302.057" x="313.653 316.97056 321.95185">-10</tspan></text>
<path transform="matrix(1,0,0,-1,328.755,316.653)" stroke-width=".3985" stroke-linecap="butt" stroke-miterlimit="10" stroke-linejoin="miter" fill="none" stroke="#000000" d="M-1.70091-153.07433H1.70091"/>
<text xml:space="preserve" transform="matrix(1 0 -0 1 0 792)" font-size="9.9626" font-family="Computer Modern"><tspan y="-319.065" x="318.634 321.95155">-9</tspan></text>
<path transform="matrix(1,0,0,-1,328.755,316.653)" stroke-width=".3985" stroke-linecap="butt" stroke-miterlimit="10" stroke-linejoin="miter" fill="none" stroke="#000000" d="M-1.70091-136.06606H1.70091"/>
<text xml:space="preserve" transform="matrix(1 0 -0 1 0 792)" font-size="9.9626" font-family="Computer Modern"><tspan y="-336.073" x="318.634 321.95155">-8</tspan></text>
<path transform="matrix(1,0,0,-1,328.755,316.653)" stroke-width=".3985" stroke-linecap="butt" stroke-miterlimit="10" stroke-linejoin="miter" fill="none" stroke="#000000" d="M-1.70091-119.0578H1.70091"/>
<text xml:space="preserve" transform="matrix(1 0 -0 1 0 792)" font-size="9.9626" font-family="Computer Modern"><tspan y="-353.081" x="318.634 321.95155">-7</tspan></text>
<path transform="matrix(1,0,0,-1,328.755,316.653)" stroke-width=".3985" stroke-linecap="butt" stroke-miterlimit="10" stroke-linejoin="miter" fill="none" stroke="#000000" d="M-1.70091-102.04953H1.70091"/>
<text xml:space="preserve" transform="matrix(1 0 -0 1 0 792)" font-size="9.9626" font-family="Computer Modern"><tspan y="-370.089" x="318.634 321.95155">-6</tspan></text>
<path transform="matrix(1,0,0,-1,328.755,316.653)" stroke-width=".3985" stroke-linecap="butt" stroke-miterlimit="10" stroke-linejoin="miter" fill="none" stroke="#000000" d="M-1.70091-85.04128H1.70091"/>
<text xml:space="preserve" transform="matrix(1 0 -0 1 0 792)" font-size="9.9626" font-family="Computer Modern"><tspan y="-387.097" x="318.634 321.95155">-5</tspan></text>
<path transform="matrix(1,0,0,-1,328.755,316.653)" stroke-width=".3985" stroke-linecap="butt" stroke-miterlimit="10" stroke-linejoin="miter" fill="none" stroke="#000000" d="M-1.70091-68.03302H1.70091"/>
<text xml:space="preserve" transform="matrix(1 0 -0 1 0 792)" font-size="9.9626" font-family="Computer Modern"><tspan y="-404.105" x="318.634 321.95155">-4</tspan></text>
<path transform="matrix(1,0,0,-1,328.755,316.653)" stroke-width=".3985" stroke-linecap="butt" stroke-miterlimit="10" stroke-linejoin="miter" fill="none" stroke="#000000" d="M-1.70091-51.02477H1.70091"/>
<text xml:space="preserve" transform="matrix(1 0 -0 1 0 792)" font-size="9.9626" font-family="Computer Modern"><tspan y="-421.113" x="318.634 321.95155">-3</tspan></text>
<path transform="matrix(1,0,0,-1,328.755,316.653)" stroke-width=".3985" stroke-linecap="butt" stroke-miterlimit="10" stroke-linejoin="miter" fill="none" stroke="#000000" d="M-1.70091-34.0165H1.70091"/>
<text xml:space="preserve" transform="matrix(1 0 -0 1 0 792)" font-size="9.9626" font-family="Computer Modern"><tspan y="-438.121" x="318.634 321.95155">-2</tspan></text>
<path transform="matrix(1,0,0,-1,328.755,316.653)" stroke-width=".3985" stroke-linecap="butt" stroke-miterlimit="10" stroke-linejoin="miter" fill="none" stroke="#000000" d="M-1.70091-17.00824H1.70091"/>
<text xml:space="preserve" transform="matrix(1 0 -0 1 0 792)" font-size="9.9626" font-family="Computer Modern"><tspan y="-455.129" x="318.634 321.95155">-1</tspan></text>
<path transform="matrix(1,0,0,-1,328.755,316.653)" stroke-width=".3985" stroke-linecap="butt" stroke-miterlimit="10" stroke-linejoin="miter" fill="none" stroke="#000000" d="M-1.70091 17.00824H1.70091"/>
<text xml:space="preserve" transform="matrix(1 0 -0 1 .000030517579 792)" font-size="9.9626" font-family="Computer Modern"><tspan y="-489.145" x="321.955">1</tspan></text>
<path transform="matrix(1,0,0,-1,328.755,316.653)" stroke-width=".3985" stroke-linecap="butt" stroke-miterlimit="10" stroke-linejoin="miter" fill="none" stroke="#000000" d="M-1.70091 34.0165H1.70091"/>
<text xml:space="preserve" transform="matrix(1 0 -0 1 .000030517579 792)" font-size="9.9626" font-family="Computer Modern"><tspan y="-506.153" x="321.955">2</tspan></text>
<path transform="matrix(1,0,0,-1,328.755,316.653)" stroke-width=".3985" stroke-linecap="butt" stroke-miterlimit="10" stroke-linejoin="miter" fill="none" stroke="#000000" d="M-1.70091 51.02477H1.70091"/>
<text xml:space="preserve" transform="matrix(1 0 -0 1 .000030517579 792)" font-size="9.9626" font-family="Computer Modern"><tspan y="-523.161" x="321.955">3</tspan></text>
<path transform="matrix(1,0,0,-1,328.755,316.653)" stroke-width=".3985" stroke-linecap="butt" stroke-miterlimit="10" stroke-linejoin="miter" fill="none" stroke="#000000" d="M-1.70091 68.03302H1.70091"/>
<text xml:space="preserve" transform="matrix(1 0 -0 1 .000030517579 792)" font-size="9.9626" font-family="Computer Modern"><tspan y="-540.169" x="321.955">4</tspan></text>
<path transform="matrix(1,0,0,-1,328.755,316.653)" stroke-width=".3985" stroke-linecap="butt" stroke-miterlimit="10" stroke-linejoin="miter" fill="none" stroke="#000000" d="M-1.70091 85.04128H1.70091"/>
<text xml:space="preserve" transform="matrix(1 0 -0 1 .000030517579 792)" font-size="9.9626" font-family="Computer Modern"><tspan y="-557.177" x="321.955">5</tspan></text>
<path transform="matrix(1,0,0,-1,328.755,316.653)" stroke-width=".3985" stroke-linecap="butt" stroke-miterlimit="10" stroke-linejoin="miter" fill="none" stroke="#000000" d="M-1.70091 102.04953H1.70091"/>
<text xml:space="preserve" transform="matrix(1 0 -0 1 .000030517579 792)" font-size="9.9626" font-family="Computer Modern"><tspan y="-574.185" x="321.955">6</tspan></text>
<path transform="matrix(1,0,0,-1,328.755,316.653)" stroke-width=".3985" stroke-linecap="butt" stroke-miterlimit="10" stroke-linejoin="miter" fill="none" stroke="#000000" d="M-1.70091 119.0578H1.70091"/>
<text xml:space="preserve" transform="matrix(1 0 -0 1 .000030517579 792)" font-size="9.9626" font-family="Computer Modern"><tspan y="-591.193" x="321.955">7</tspan></text>
<path transform="matrix(1,0,0,-1,328.755,316.653)" stroke-width=".3985" stroke-linecap="butt" stroke-miterlimit="10" stroke-linejoin="miter" fill="none" stroke="#000000" d="M-1.70091 136.06606H1.70091"/>
<text xml:space="preserve" transform="matrix(1 0 -0 1 .000030517579 792)" font-size="9.9626" font-family="Computer Modern"><tspan y="-608.201" x="321.955">8</tspan></text>
<path transform="matrix(1,0,0,-1,328.755,316.653)" stroke-width=".3985" stroke-linecap="butt" stroke-miterlimit="10" stroke-linejoin="miter" fill="none" stroke="#000000" d="M-1.70091 153.07433H1.70091"/>
<text xml:space="preserve" transform="matrix(1 0 -0 1 .000030517579 792)" font-size="9.9626" font-family="Computer Modern"><tspan y="-625.209" x="321.955">9</tspan></text>
<path transform="matrix(1,0,0,-1,328.755,316.653)" stroke-width=".3985" stroke-linecap="butt" stroke-miterlimit="10" stroke-linejoin="miter" fill="none" stroke="#000000" d="M-1.70091 170.08257H1.70091"/>
<text xml:space="preserve" transform="matrix(1 0 -0 1 0 792)" font-size="9.9626" font-family="Computer Modern"><tspan y="-642.217" x="316.973 321.95429">10</tspan></text>
<text xml:space="preserve" transform="matrix(1 0 -0 1 0 792)" font-size="9.9626" font-family="Computer Modern"><tspan y="-89.365" x="303.133">1</tspan></text>
</svg>
