<?xml version="1.0" encoding="UTF-8" standalone="no"?>
<svg
   version="1.1"
   width="612"
   height="792"
   viewBox="0 0 612 792"
   id="svg47"
   xmlns="http://www.w3.org/2000/svg"
   xmlns:svg="http://www.w3.org/2000/svg">
  <defs
     id="defs47" />
  <path
     transform="matrix(1,0,0,-1,328.755,316.653)"
     stroke-width=".19925"
     stroke-linecap="butt"
     stroke-miterlimit="10"
     stroke-linejoin="miter"
     fill="none"
     stroke="#333333"
     d="M-170.08257-170.08257H170.08257M-170.08257-153.07433H170.08257M-170.08257-136.06606H170.08257M-170.08257-119.0578H170.08257M-170.08257-102.04953H170.08257M-170.08257-85.04128H170.08257M-170.08257-68.03302H170.08257M-170.08257-51.02477H170.08257M-170.08257-34.0165H170.08257M-170.08257-17.00824H170.08257M-170.08257 0H170.08257M-170.08257 17.00824H170.08257M-170.08257 34.0165H170.08257M-170.08257 51.02477H170.08257M-170.08257 68.03302H170.08257M-170.08257 85.04128H170.08257M-170.08257 102.04953H170.08257M-170.08257 119.0578H170.08257M-170.08257 136.06606H170.08257M-170.08257 153.07433H170.08257M-170.08257 170.0766H170.08257M-170.08257-170.08257V170.08257M-153.07433-170.08257V170.08257M-136.06606-170.08257V170.08257M-119.0578-170.08257V170.08257M-102.04953-170.08257V170.08257M-85.04128-170.08257V170.08257M-68.03302-170.08257V170.08257M-51.02477-170.08257V170.08257M-34.0165-170.08257V170.08257M-17.00824-170.08257V170.08257M0-170.08257V170.08257M17.00824-170.08257V170.08257M34.0165-170.08257V170.08257M51.02477-170.08257V170.08257M68.03302-170.08257V170.08257M85.04128-170.08257V170.08257M102.04953-170.08257V170.08257M119.0578-170.08257V170.08257M136.06606-170.08257V170.08257M153.07433-170.08257V170.08257M170.0766-170.08257V170.08257M170.08257 170.08257"
     id="path1" />
  <path
     transform="matrix(1,0,0,-1,328.755,316.653)"
     stroke-width=".79701"
     stroke-linecap="butt"
     stroke-miterlimit="10"
     stroke-linejoin="miter"
     fill="none"
     stroke="#000000"
     d="M-178.5867 0H177.87934"
     id="path2" />
  <path
     transform="matrix(1,0,0,-1,506.63435,316.653)"
     stroke-width=".6376"
     stroke-linecap="round"
     stroke-linejoin="round"
     fill="none"
     stroke="#000000"
     d="M-1.55415 2.0722C-1.42464 1.29512 0 .1295 .38852 0 0-.1295-1.42464-1.29512-1.55415-2.0722"
     id="path3" />
  <text
     xml:space="preserve"
     transform="matrix(1 0 -0 1 -.000030517579 792)"
     font-size="9.9626"
     font-family="Computer Modern"
     font-style="italic"
     id="text3"><tspan
       y="-473.203"
       x="511.058"
       id="tspan3">x</tspan></text>
  <path
     transform="matrix(1,0,0,-1,328.755,316.653)"
     stroke-width=".79701"
     stroke-linecap="butt"
     stroke-miterlimit="10"
     stroke-linejoin="miter"
     fill="none"
     stroke="#000000"
     d="M0-178.5867V177.87934"
     id="path4" />
  <path
     transform="matrix(0,-1,-1,-0,328.755,138.77368)"
     stroke-width=".6376"
     stroke-linecap="round"
     stroke-linejoin="round"
     fill="none"
     stroke="#000000"
     d="M-1.55415 2.0722C-1.42464 1.29512 0 .1295 .38852 0 0-.1295-1.42464-1.29512-1.55415-2.0722"
     id="path5" />
  <text
     xml:space="preserve"
     transform="matrix(1 0 -0 1 0 792)"
     font-size="9.9626"
     font-family="Computer Modern"
     font-style="italic"
     id="text5"><tspan
       y="-659.588"
       x="326.134"
       id="tspan5">y</tspan></text>
  <path
     transform="matrix(1,0,0,-1,328.755,316.653)"
     stroke-width=".3985"
     stroke-linecap="butt"
     stroke-miterlimit="10"
     stroke-linejoin="miter"
     fill="none"
     stroke="#000000"
     d="M-170.08257-1.70091V1.70091"
     id="path6" />
  <text
     xml:space="preserve"
     transform="matrix(1 0 -0 1 0 792)"
     font-size="9.9626"
     font-family="Computer Modern"
     id="text6"><tspan
       y="-467.108"
       x="152.033 155.35056 160.33185"
       id="tspan6">-10</tspan></text>
  <path
     transform="matrix(1,0,0,-1,328.755,316.653)"
     stroke-width=".3985"
     stroke-linecap="butt"
     stroke-miterlimit="10"
     stroke-linejoin="miter"
     fill="none"
     stroke="#000000"
     d="M-153.07433-1.70091V1.70091"
     id="path7" />
  <text
     xml:space="preserve"
     transform="matrix(1 0 -0 1 0 792)"
     font-size="9.9626"
     font-family="Computer Modern"
     id="text7"><tspan
       y="-467.108"
       x="171.532 174.84955"
       id="tspan7">-9</tspan></text>
  <path
     transform="matrix(1,0,0,-1,328.755,316.653)"
     stroke-width=".3985"
     stroke-linecap="butt"
     stroke-miterlimit="10"
     stroke-linejoin="miter"
     fill="none"
     stroke="#000000"
     d="M-136.06606-1.70091V1.70091"
     id="path8" />
  <text
     xml:space="preserve"
     transform="matrix(1 0 -0 1 .000015258789 792)"
     font-size="9.9626"
     font-family="Computer Modern"
     id="text8"><tspan
       y="-467.108"
       x="188.54 191.85755"
       id="tspan8">-8</tspan></text>
  <path
     transform="matrix(1,0,0,-1,328.755,316.653)"
     stroke-width=".3985"
     stroke-linecap="butt"
     stroke-miterlimit="10"
     stroke-linejoin="miter"
     fill="none"
     stroke="#000000"
     d="M-119.0578-1.70091V1.70091"
     id="path9" />
  <text
     xml:space="preserve"
     transform="matrix(1 0 -0 1 0 792)"
     font-size="9.9626"
     font-family="Computer Modern"
     id="text9"><tspan
       y="-467.108"
       x="205.548 208.86556"
       id="tspan9">-7</tspan></text>
  <path
     transform="matrix(1,0,0,-1,328.755,316.653)"
     stroke-width=".3985"
     stroke-linecap="butt"
     stroke-miterlimit="10"
     stroke-linejoin="miter"
     fill="none"
     stroke="#000000"
     d="M-102.04953-1.70091V1.70091"
     id="path10" />
  <text
     xml:space="preserve"
     transform="matrix(1 0 -0 1 0 792)"
     font-size="9.9626"
     font-family="Computer Modern"
     id="text10"><tspan
       y="-467.108"
       x="222.556 225.87355"
       id="tspan10">-6</tspan></text>
  <path
     transform="matrix(1,0,0,-1,328.755,316.653)"
     stroke-width=".3985"
     stroke-linecap="butt"
     stroke-miterlimit="10"
     stroke-linejoin="miter"
     fill="none"
     stroke="#000000"
     d="M-85.04128-1.70091V1.70091"
     id="path11" />
  <text
     xml:space="preserve"
     transform="matrix(1 0 -0 1 0 792)"
     font-size="9.9626"
     font-family="Computer Modern"
     id="text11"><tspan
       y="-467.108"
       x="239.564 242.88155"
       id="tspan11">-5</tspan></text>
  <path
     transform="matrix(1,0,0,-1,328.755,316.653)"
     stroke-width=".3985"
     stroke-linecap="butt"
     stroke-miterlimit="10"
     stroke-linejoin="miter"
     fill="none"
     stroke="#000000"
     d="M-68.03302-1.70091V1.70091"
     id="path12" />
  <text
     xml:space="preserve"
     transform="matrix(1 0 -0 1 .000030517579 792)"
     font-size="9.9626"
     font-family="Computer Modern"
     id="text12"><tspan
       y="-467.108"
       x="256.572 259.88954"
       id="tspan12">-4</tspan></text>
  <path
     transform="matrix(1,0,0,-1,328.755,316.653)"
     stroke-width=".3985"
     stroke-linecap="butt"
     stroke-miterlimit="10"
     stroke-linejoin="miter"
     fill="none"
     stroke="#000000"
     d="M-51.02477-1.70091V1.70091"
     id="path13" />
  <text
     xml:space="preserve"
     transform="matrix(1 0 -0 1 .000030517579 792)"
     font-size="9.9626"
     font-family="Computer Modern"
     id="text13"><tspan
       y="-467.108"
       x="273.58 276.89753"
       id="tspan13">-3</tspan></text>
  <path
     transform="matrix(1,0,0,-1,328.755,316.653)"
     stroke-width=".3985"
     stroke-linecap="butt"
     stroke-miterlimit="10"
     stroke-linejoin="miter"
     fill="none"
     stroke="#000000"
     d="M-34.0165-1.70091V1.70091"
     id="path14" />
  <text
     xml:space="preserve"
     transform="matrix(1 0 -0 1 0 792)"
     font-size="9.9626"
     font-family="Computer Modern"
     id="text14"><tspan
       y="-467.108"
       x="290.588 293.90556"
       id="tspan14">-2</tspan></text>
  <path
     transform="matrix(1,0,0,-1,328.755,316.653)"
     stroke-width=".3985"
     stroke-linecap="butt"
     stroke-miterlimit="10"
     stroke-linejoin="miter"
     fill="none"
     stroke="#000000"
     d="M-17.00824-1.70091V1.70091"
     id="path15" />
  <text
     xml:space="preserve"
     transform="matrix(1 0 -0 1 0 792)"
     font-size="9.9626"
     font-family="Computer Modern"
     id="text15"><tspan
       y="-467.108"
       x="307.596 310.91355"
       id="tspan15">-1</tspan></text>
  <path
     transform="matrix(1,0,0,-1,328.755,316.653)"
     stroke-width=".3985"
     stroke-linecap="butt"
     stroke-miterlimit="10"
     stroke-linejoin="miter"
     fill="none"
     stroke="#000000"
     d="M0-1.70091V1.70091"
     id="path16" />
  <text
     xml:space="preserve"
     transform="matrix(1 0 -0 1 0 792)"
     font-size="9.9626"
     font-family="Computer Modern"
     id="text16"><tspan
       y="-467.108"
       x="326.264"
       id="tspan16">0</tspan></text>
  <path
     transform="matrix(1,0,0,-1,328.755,316.653)"
     stroke-width=".3985"
     stroke-linecap="butt"
     stroke-miterlimit="10"
     stroke-linejoin="miter"
     fill="none"
     stroke="#000000"
     d="M17.00824-1.70091V1.70091"
     id="path17" />
  <text
     xml:space="preserve"
     transform="matrix(1 0 -0 1 0 792)"
     font-size="9.9626"
     font-family="Computer Modern"
     id="text17"><tspan
       y="-467.108"
       x="343.272"
       id="tspan17">1</tspan></text>
  <path
     transform="matrix(1,0,0,-1,328.755,316.653)"
     stroke-width=".3985"
     stroke-linecap="butt"
     stroke-miterlimit="10"
     stroke-linejoin="miter"
     fill="none"
     stroke="#000000"
     d="M34.0165-1.70091V1.70091"
     id="path18" />
  <text
     xml:space="preserve"
     transform="matrix(1 0 -0 1 0 792)"
     font-size="9.9626"
     font-family="Computer Modern"
     id="text18"><tspan
       y="-467.108"
       x="360.28"
       id="tspan18">2</tspan></text>
  <path
     transform="matrix(1,0,0,-1,328.755,316.653)"
     stroke-width=".3985"
     stroke-linecap="butt"
     stroke-miterlimit="10"
     stroke-linejoin="miter"
     fill="none"
     stroke="#000000"
     d="M51.02477-1.70091V1.70091"
     id="path19" />
  <text
     xml:space="preserve"
     transform="matrix(1 0 -0 1 0 792)"
     font-size="9.9626"
     font-family="Computer Modern"
     id="text19"><tspan
       y="-467.108"
       x="377.288"
       id="tspan19">3</tspan></text>
  <path
     transform="matrix(1,0,0,-1,328.755,316.653)"
     stroke-width=".3985"
     stroke-linecap="butt"
     stroke-miterlimit="10"
     stroke-linejoin="miter"
     fill="none"
     stroke="#000000"
     d="M68.03302-1.70091V1.70091"
     id="path20" />
  <text
     xml:space="preserve"
     transform="matrix(1 0 -0 1 .000030517579 792)"
     font-size="9.9626"
     font-family="Computer Modern"
     id="text20"><tspan
       y="-467.108"
       x="394.296"
       id="tspan20">4</tspan></text>
  <path
     transform="matrix(1,0,0,-1,328.755,316.653)"
     stroke-width=".3985"
     stroke-linecap="butt"
     stroke-miterlimit="10"
     stroke-linejoin="miter"
     fill="none"
     stroke="#000000"
     d="M85.04128-1.70091V1.70091"
     id="path21" />
  <text
     xml:space="preserve"
     transform="matrix(1 0 -0 1 0 792)"
     font-size="9.9626"
     font-family="Computer Modern"
     id="text21"><tspan
       y="-467.108"
       x="411.305"
       id="tspan21">5</tspan></text>
  <path
     transform="matrix(1,0,0,-1,328.755,316.653)"
     stroke-width=".3985"
     stroke-linecap="butt"
     stroke-miterlimit="10"
     stroke-linejoin="miter"
     fill="none"
     stroke="#000000"
     d="M102.04953-1.70091V1.70091"
     id="path22" />
  <text
     xml:space="preserve"
     transform="matrix(1 0 -0 1 0 792)"
     font-size="9.9626"
     font-family="Computer Modern"
     id="text22"><tspan
       y="-467.108"
       x="428.313"
       id="tspan22">6</tspan></text>
  <path
     transform="matrix(1,0,0,-1,328.755,316.653)"
     stroke-width=".3985"
     stroke-linecap="butt"
     stroke-miterlimit="10"
     stroke-linejoin="miter"
     fill="none"
     stroke="#000000"
     d="M119.0578-1.70091V1.70091"
     id="path23" />
  <text
     xml:space="preserve"
     transform="matrix(1 0 -0 1 0 792)"
     font-size="9.9626"
     font-family="Computer Modern"
     id="text23"><tspan
       y="-467.108"
       x="445.321"
       id="tspan23">7</tspan></text>
  <path
     transform="matrix(1,0,0,-1,328.755,316.653)"
     stroke-width=".3985"
     stroke-linecap="butt"
     stroke-miterlimit="10"
     stroke-linejoin="miter"
     fill="none"
     stroke="#000000"
     d="M136.06606-1.70091V1.70091"
     id="path24" />
  <text
     xml:space="preserve"
     transform="matrix(1 0 -0 1 0 792)"
     font-size="9.9626"
     font-family="Computer Modern"
     id="text24"><tspan
       y="-467.108"
       x="462.329"
       id="tspan24">8</tspan></text>
  <path
     transform="matrix(1,0,0,-1,328.755,316.653)"
     stroke-width=".3985"
     stroke-linecap="butt"
     stroke-miterlimit="10"
     stroke-linejoin="miter"
     fill="none"
     stroke="#000000"
     d="M153.07433-1.70091V1.70091"
     id="path25" />
  <text
     xml:space="preserve"
     transform="matrix(1 0 -0 1 0 792)"
     font-size="9.9626"
     font-family="Computer Modern"
     id="text25"><tspan
       y="-467.108"
       x="479.337"
       id="tspan25">9</tspan></text>
  <path
     transform="matrix(1,0,0,-1,328.755,316.653)"
     stroke-width=".3985"
     stroke-linecap="butt"
     stroke-miterlimit="10"
     stroke-linejoin="miter"
     fill="none"
     stroke="#000000"
     d="M170.08257-1.70091V1.70091"
     id="path26" />
  <text
     xml:space="preserve"
     transform="matrix(1 0 -0 1 0 792)"
     font-size="9.9626"
     font-family="Computer Modern"
     id="text26"><tspan
       y="-467.108"
       x="493.854 498.8353"
       id="tspan26">10</tspan></text>
  <path
     transform="matrix(1,0,0,-1,328.755,316.653)"
     stroke-width=".3985"
     stroke-linecap="butt"
     stroke-miterlimit="10"
     stroke-linejoin="miter"
     fill="none"
     stroke="#000000"
     d="M-1.70091-170.08257H1.70091"
     id="path27" />
  <text
     xml:space="preserve"
     transform="matrix(1 0 -0 1 0 792)"
     font-size="9.9626"
     font-family="Computer Modern"
     id="text27"><tspan
       y="-302.057"
       x="313.653 316.97056 321.95185"
       id="tspan27">-10</tspan></text>
  <path
     transform="matrix(1,0,0,-1,328.755,316.653)"
     stroke-width=".3985"
     stroke-linecap="butt"
     stroke-miterlimit="10"
     stroke-linejoin="miter"
     fill="none"
     stroke="#000000"
     d="M-1.70091-153.07433H1.70091"
     id="path28" />
  <text
     xml:space="preserve"
     transform="matrix(1 0 -0 1 0 792)"
     font-size="9.9626"
     font-family="Computer Modern"
     id="text28"><tspan
       y="-319.065"
       x="318.634 321.95155"
       id="tspan28">-9</tspan></text>
  <path
     transform="matrix(1,0,0,-1,328.755,316.653)"
     stroke-width=".3985"
     stroke-linecap="butt"
     stroke-miterlimit="10"
     stroke-linejoin="miter"
     fill="none"
     stroke="#000000"
     d="M-1.70091-136.06606H1.70091"
     id="path29" />
  <text
     xml:space="preserve"
     transform="matrix(1 0 -0 1 0 792)"
     font-size="9.9626"
     font-family="Computer Modern"
     id="text29"><tspan
       y="-336.073"
       x="318.634 321.95155"
       id="tspan29">-8</tspan></text>
  <path
     transform="matrix(1,0,0,-1,328.755,316.653)"
     stroke-width=".3985"
     stroke-linecap="butt"
     stroke-miterlimit="10"
     stroke-linejoin="miter"
     fill="none"
     stroke="#000000"
     d="M-1.70091-119.0578H1.70091"
     id="path30" />
  <text
     xml:space="preserve"
     transform="matrix(1 0 -0 1 0 792)"
     font-size="9.9626"
     font-family="Computer Modern"
     id="text30"><tspan
       y="-353.081"
       x="318.634 321.95155"
       id="tspan30">-7</tspan></text>
  <path
     transform="matrix(1,0,0,-1,328.755,316.653)"
     stroke-width=".3985"
     stroke-linecap="butt"
     stroke-miterlimit="10"
     stroke-linejoin="miter"
     fill="none"
     stroke="#000000"
     d="M-1.70091-102.04953H1.70091"
     id="path31" />
  <text
     xml:space="preserve"
     transform="matrix(1 0 -0 1 0 792)"
     font-size="9.9626"
     font-family="Computer Modern"
     id="text31"><tspan
       y="-370.089"
       x="318.634 321.95155"
       id="tspan31">-6</tspan></text>
  <path
     transform="matrix(1,0,0,-1,328.755,316.653)"
     stroke-width=".3985"
     stroke-linecap="butt"
     stroke-miterlimit="10"
     stroke-linejoin="miter"
     fill="none"
     stroke="#000000"
     d="M-1.70091-85.04128H1.70091"
     id="path32" />
  <text
     xml:space="preserve"
     transform="matrix(1 0 -0 1 0 792)"
     font-size="9.9626"
     font-family="Computer Modern"
     id="text32"><tspan
       y="-387.097"
       x="318.634 321.95155"
       id="tspan32">-5</tspan></text>
  <path
     transform="matrix(1,0,0,-1,328.755,316.653)"
     stroke-width=".3985"
     stroke-linecap="butt"
     stroke-miterlimit="10"
     stroke-linejoin="miter"
     fill="none"
     stroke="#000000"
     d="M-1.70091-68.03302H1.70091"
     id="path33" />
  <text
     xml:space="preserve"
     transform="matrix(1 0 -0 1 0 792)"
     font-size="9.9626"
     font-family="Computer Modern"
     id="text33"><tspan
       y="-404.105"
       x="318.634 321.95155"
       id="tspan33">-4</tspan></text>
  <path
     transform="matrix(1,0,0,-1,328.755,316.653)"
     stroke-width=".3985"
     stroke-linecap="butt"
     stroke-miterlimit="10"
     stroke-linejoin="miter"
     fill="none"
     stroke="#000000"
     d="M-1.70091-51.02477H1.70091"
     id="path34" />
  <text
     xml:space="preserve"
     transform="matrix(1 0 -0 1 0 792)"
     font-size="9.9626"
     font-family="Computer Modern"
     id="text34"><tspan
       y="-421.113"
       x="318.634 321.95155"
       id="tspan34">-3</tspan></text>
  <path
     transform="matrix(1,0,0,-1,328.755,316.653)"
     stroke-width=".3985"
     stroke-linecap="butt"
     stroke-miterlimit="10"
     stroke-linejoin="miter"
     fill="none"
     stroke="#000000"
     d="M-1.70091-34.0165H1.70091"
     id="path35" />
  <text
     xml:space="preserve"
     transform="matrix(1 0 -0 1 0 792)"
     font-size="9.9626"
     font-family="Computer Modern"
     id="text35"><tspan
       y="-438.121"
       x="318.634 321.95155"
       id="tspan35">-2</tspan></text>
  <path
     transform="matrix(1,0,0,-1,328.755,316.653)"
     stroke-width=".3985"
     stroke-linecap="butt"
     stroke-miterlimit="10"
     stroke-linejoin="miter"
     fill="none"
     stroke="#000000"
     d="M-1.70091-17.00824H1.70091"
     id="path36" />
  <text
     xml:space="preserve"
     transform="matrix(1 0 -0 1 0 792)"
     font-size="9.9626"
     font-family="Computer Modern"
     id="text36"><tspan
       y="-455.129"
       x="318.634 321.95155"
       id="tspan36">-1</tspan></text>
  <path
     transform="matrix(1,0,0,-1,328.755,316.653)"
     stroke-width=".3985"
     stroke-linecap="butt"
     stroke-miterlimit="10"
     stroke-linejoin="miter"
     fill="none"
     stroke="#000000"
     d="M-1.70091 17.00824H1.70091"
     id="path37" />
  <text
     xml:space="preserve"
     transform="matrix(1 0 -0 1 .000030517579 792)"
     font-size="9.9626"
     font-family="Computer Modern"
     id="text37"><tspan
       y="-489.145"
       x="321.955"
       id="tspan37">1</tspan></text>
  <path
     transform="matrix(1,0,0,-1,328.755,316.653)"
     stroke-width=".3985"
     stroke-linecap="butt"
     stroke-miterlimit="10"
     stroke-linejoin="miter"
     fill="none"
     stroke="#000000"
     d="M-1.70091 34.0165H1.70091"
     id="path38" />
  <text
     xml:space="preserve"
     transform="matrix(1 0 -0 1 .000030517579 792)"
     font-size="9.9626"
     font-family="Computer Modern"
     id="text38"><tspan
       y="-506.153"
       x="321.955"
       id="tspan38">2</tspan></text>
  <path
     transform="matrix(1,0,0,-1,328.755,316.653)"
     stroke-width=".3985"
     stroke-linecap="butt"
     stroke-miterlimit="10"
     stroke-linejoin="miter"
     fill="none"
     stroke="#000000"
     d="M-1.70091 51.02477H1.70091"
     id="path39" />
  <text
     xml:space="preserve"
     transform="matrix(1 0 -0 1 .000030517579 792)"
     font-size="9.9626"
     font-family="Computer Modern"
     id="text39"><tspan
       y="-523.161"
       x="321.955"
       id="tspan39">3</tspan></text>
  <path
     transform="matrix(1,0,0,-1,328.755,316.653)"
     stroke-width=".3985"
     stroke-linecap="butt"
     stroke-miterlimit="10"
     stroke-linejoin="miter"
     fill="none"
     stroke="#000000"
     d="M-1.70091 68.03302H1.70091"
     id="path40" />
  <text
     xml:space="preserve"
     transform="matrix(1 0 -0 1 .000030517579 792)"
     font-size="9.9626"
     font-family="Computer Modern"
     id="text40"><tspan
       y="-540.169"
       x="321.955"
       id="tspan40">4</tspan></text>
  <path
     transform="matrix(1,0,0,-1,328.755,316.653)"
     stroke-width=".3985"
     stroke-linecap="butt"
     stroke-miterlimit="10"
     stroke-linejoin="miter"
     fill="none"
     stroke="#000000"
     d="M-1.70091 85.04128H1.70091"
     id="path41" />
  <text
     xml:space="preserve"
     transform="matrix(1 0 -0 1 .000030517579 792)"
     font-size="9.9626"
     font-family="Computer Modern"
     id="text41"><tspan
       y="-557.177"
       x="321.955"
       id="tspan41">5</tspan></text>
  <path
     transform="matrix(1,0,0,-1,328.755,316.653)"
     stroke-width=".3985"
     stroke-linecap="butt"
     stroke-miterlimit="10"
     stroke-linejoin="miter"
     fill="none"
     stroke="#000000"
     d="M-1.70091 102.04953H1.70091"
     id="path42" />
  <text
     xml:space="preserve"
     transform="matrix(1 0 -0 1 .000030517579 792)"
     font-size="9.9626"
     font-family="Computer Modern"
     id="text42"><tspan
       y="-574.185"
       x="321.955"
       id="tspan42">6</tspan></text>
  <path
     transform="matrix(1,0,0,-1,328.755,316.653)"
     stroke-width=".3985"
     stroke-linecap="butt"
     stroke-miterlimit="10"
     stroke-linejoin="miter"
     fill="none"
     stroke="#000000"
     d="M-1.70091 119.0578H1.70091"
     id="path43" />
  <text
     xml:space="preserve"
     transform="matrix(1 0 -0 1 .000030517579 792)"
     font-size="9.9626"
     font-family="Computer Modern"
     id="text43"><tspan
       y="-591.193"
       x="321.955"
       id="tspan43">7</tspan></text>
  <path
     transform="matrix(1,0,0,-1,328.755,316.653)"
     stroke-width=".3985"
     stroke-linecap="butt"
     stroke-miterlimit="10"
     stroke-linejoin="miter"
     fill="none"
     stroke="#000000"
     d="M-1.70091 136.06606H1.70091"
     id="path44" />
  <text
     xml:space="preserve"
     transform="matrix(1 0 -0 1 .000030517579 792)"
     font-size="9.9626"
     font-family="Computer Modern"
     id="text44"><tspan
       y="-608.201"
       x="321.955"
       id="tspan44">8</tspan></text>
  <path
     transform="matrix(1,0,0,-1,328.755,316.653)"
     stroke-width=".3985"
     stroke-linecap="butt"
     stroke-miterlimit="10"
     stroke-linejoin="miter"
     fill="none"
     stroke="#000000"
     d="M-1.70091 153.07433H1.70091"
     id="path45" />
  <text
     xml:space="preserve"
     transform="matrix(1 0 -0 1 .000030517579 792)"
     font-size="9.9626"
     font-family="Computer Modern"
     id="text45"><tspan
       y="-625.209"
       x="321.955"
       id="tspan45">9</tspan></text>
  <path
     transform="matrix(1,0,0,-1,328.755,316.653)"
     stroke-width=".3985"
     stroke-linecap="butt"
     stroke-miterlimit="10"
     stroke-linejoin="miter"
     fill="none"
     stroke="#000000"
     d="M-1.70091 170.08257H1.70091"
     id="path46" />
  <text
     xml:space="preserve"
     transform="matrix(1 0 -0 1 0 792)"
     font-size="9.9626"
     font-family="Computer Modern"
     id="text46"><tspan
       y="-642.217"
       x="316.973 321.95429"
       id="tspan46">10</tspan></text>
  <text
     xml:space="preserve"
     transform="matrix(1 0 -0 1 0 792)"
     font-size="9.9626"
     font-family="Computer Modern"
     id="text47"><tspan
       y="-89.365"
       x="303.133"
       id="tspan47">1</tspan></text>
</svg>
